<svg width="252" height="250" viewBox="0 0 252 250" fill="none" xmlns="http://www.w3.org/2000/svg">
<g filter="url(#filter0_dii_80_816)">
<rect x="40" y="36" width="172" height="170" rx="35" fill="#16AEFA" fill-opacity="0.2" shape-rendering="crispEdges"/>
<g filter="url(#filter1_dd_80_816)">
<path d="M122.685 179.032H115.813L114.776 185.007H122.918L122.252 188.783H109.684L113.584 166.248H126.137L125.471 170.04H117.377L116.448 175.364H123.336L122.685 179.032Z" fill="#012639"/>
<path d="M110.102 166.248L107.471 181.725C107.316 182.871 107.022 183.903 106.588 184.821C106.155 185.739 105.593 186.524 104.901 187.174C104.21 187.813 103.39 188.304 102.44 188.644C101.501 188.974 100.438 189.129 99.2518 189.108C98.1374 189.088 97.1623 188.897 96.3265 188.536C95.5011 188.175 94.82 187.674 94.2835 187.034C93.7572 186.384 93.3857 185.61 93.1691 184.713C92.9627 183.815 92.9214 182.819 93.0452 181.725L95.6765 166.248H100.134L97.5338 181.741C97.4822 182.205 97.4564 182.654 97.4564 183.088C97.4667 183.511 97.539 183.887 97.6731 184.217C97.8176 184.537 98.0394 184.795 98.3387 184.991C98.6482 185.187 99.0764 185.296 99.6233 185.316C100.201 185.337 100.691 185.265 101.094 185.1C101.496 184.924 101.831 184.677 102.1 184.357C102.368 184.027 102.574 183.64 102.719 183.196C102.863 182.752 102.972 182.267 103.044 181.741L105.66 166.248H110.102Z" fill="#012639"/>
<path d="M82.5204 185.007H90.2748L89.6093 188.783H77.4282L81.3286 166.248H85.7708L82.5204 185.007Z" fill="#012639"/>
<path d="M60 188.783L63.9004 166.248L70.4321 166.263C71.3814 166.284 72.2481 166.423 73.0323 166.681C73.8269 166.929 74.4976 167.3 75.0445 167.795C75.6017 168.291 76.0144 168.915 76.2827 169.668C76.5613 170.411 76.6645 171.288 76.5922 172.299C76.4994 173.486 76.1434 174.492 75.5243 175.318C74.9052 176.133 74.0642 176.788 73.0014 177.283C73.476 177.479 73.863 177.753 74.1622 178.104C74.4615 178.444 74.6885 178.831 74.8432 179.264C75.0083 179.698 75.1115 180.152 75.1528 180.627C75.2044 181.101 75.2147 181.571 75.1838 182.035C75.1012 183.139 74.8536 184.114 74.4408 184.96C74.0384 185.806 73.5018 186.518 72.8311 187.096C72.1604 187.664 71.371 188.092 70.463 188.381C69.555 188.66 68.5592 188.794 67.4758 188.783H60ZM66.1447 178.986L65.0922 185.007L67.6925 185.038C68.1465 185.027 68.5541 184.945 68.9152 184.79C69.2764 184.635 69.5859 184.424 69.8439 184.155C70.1019 183.877 70.3082 183.552 70.463 183.18C70.6281 182.809 70.7416 182.406 70.8035 181.973C70.8448 181.653 70.8654 181.323 70.8654 180.983C70.8758 180.642 70.8293 180.332 70.7261 180.054C70.6333 179.765 70.4733 179.528 70.2463 179.342C70.0296 179.146 69.7201 179.032 69.3177 179.001L66.1447 178.986ZM66.7019 175.674L68.8069 175.705C69.7356 175.684 70.4785 175.421 71.0357 174.915C71.5929 174.41 71.9334 173.698 72.0572 172.779C72.1088 172.397 72.1191 172.047 72.0882 171.727C72.0676 171.397 71.9902 171.113 71.856 170.876C71.7219 170.638 71.5207 170.447 71.2524 170.303C70.9944 170.158 70.6591 170.076 70.2463 170.055L67.6925 170.04L66.7019 175.674Z" fill="#012639"/>
<path d="M122.685 141.72H115.813L114.776 147.695H122.918L122.252 151.471H109.684L113.584 128.936H126.137L125.471 132.728H117.377L116.448 138.052H123.336L122.685 141.72Z" fill="#012639"/>
<path d="M110.102 128.936L107.471 144.414C107.316 145.559 107.022 146.591 106.588 147.509C106.155 148.427 105.593 149.212 104.901 149.862C104.21 150.502 103.39 150.992 102.44 151.332C101.501 151.662 100.438 151.817 99.2518 151.797C98.1374 151.776 97.1623 151.585 96.3265 151.224C95.5011 150.863 94.82 150.362 94.2835 149.722C93.7572 149.072 93.3857 148.299 93.1691 147.401C92.9627 146.503 92.9214 145.507 93.0452 144.414L95.6765 128.936H100.134L97.5338 144.429C97.4822 144.893 97.4564 145.342 97.4564 145.776C97.4667 146.199 97.539 146.575 97.6731 146.906C97.8176 147.225 98.0394 147.483 98.3387 147.679C98.6482 147.875 99.0764 147.984 99.6233 148.004C100.201 148.025 100.691 147.953 101.094 147.788C101.496 147.612 101.831 147.365 102.1 147.045C102.368 146.715 102.574 146.328 102.719 145.884C102.863 145.44 102.972 144.955 103.044 144.429L105.66 128.936H110.102Z" fill="#012639"/>
<path d="M82.5204 147.695H90.2748L89.6093 151.471H77.4282L81.3286 128.936H85.7708L82.5204 147.695Z" fill="#012639"/>
<path d="M60 151.471L63.9004 128.936L70.4321 128.951C71.3814 128.972 72.2481 129.111 73.0323 129.369C73.8269 129.617 74.4976 129.988 75.0445 130.484C75.6017 130.979 76.0144 131.603 76.2827 132.356C76.5613 133.099 76.6645 133.976 76.5922 134.988C76.4994 136.174 76.1434 137.18 75.5243 138.006C74.9052 138.821 74.0642 139.476 73.0014 139.971C73.476 140.167 73.863 140.441 74.1622 140.792C74.4615 141.132 74.6885 141.519 74.8432 141.953C75.0083 142.386 75.1115 142.84 75.1528 143.315C75.2044 143.789 75.2147 144.259 75.1838 144.723C75.1012 145.827 74.8536 146.802 74.4408 147.648C74.0384 148.495 73.5018 149.207 72.8311 149.784C72.1604 150.352 71.371 150.78 70.463 151.069C69.555 151.348 68.5592 151.482 67.4758 151.471H60ZM66.1447 141.674L65.0922 147.695L67.6925 147.726C68.1465 147.716 68.5541 147.633 68.9152 147.478C69.2764 147.323 69.5859 147.112 69.8439 146.844C70.1019 146.565 70.3082 146.24 70.463 145.868C70.6281 145.497 70.7416 145.095 70.8035 144.661C70.8448 144.341 70.8654 144.011 70.8654 143.671C70.8758 143.33 70.8293 143.021 70.7261 142.742C70.6333 142.453 70.4733 142.216 70.2463 142.03C70.0296 141.834 69.7201 141.72 69.3177 141.689L66.1447 141.674ZM66.7019 138.362L68.8069 138.393C69.7356 138.372 70.4785 138.109 71.0357 137.603C71.5929 137.098 71.9334 136.386 72.0572 135.467C72.1088 135.086 72.1191 134.735 72.0882 134.415C72.0676 134.085 71.9902 133.801 71.856 133.564C71.7219 133.326 71.5207 133.135 71.2524 132.991C70.9944 132.846 70.6591 132.764 70.2463 132.743L67.6925 132.728L66.7019 138.362Z" fill="#012639"/>
<path d="M109.189 113.045C109.013 114.17 108.621 115.212 108.012 116.172C107.404 117.142 106.661 117.972 105.784 118.664L104.174 117.503C104.71 116.842 105.175 116.151 105.567 115.429C105.959 114.717 106.238 113.943 106.403 113.107L106.805 110.77H109.545L109.189 113.045Z" fill="#012639"/>
<path d="M101.202 102.907L107.641 91.6238H110.907L102.131 105.925L100.707 114.16H97.9363L99.4377 105.585L95.7075 91.6238H98.7102L101.202 102.907Z" fill="#012639"/>
<path d="M83.5109 103.805L80.7714 106.591L79.4712 114.16H76.7007L80.6011 91.6238H83.3716L81.4988 102.334L83.7276 99.9045L90.9403 91.6238H94.4692L85.5076 101.7L90.9248 114.16H87.7983L83.5109 103.805Z" fill="#012639"/>
<path d="M71.2059 108.355C71.2781 107.747 71.242 107.225 71.0975 106.792C70.9531 106.348 70.7261 105.967 70.4165 105.647C70.1173 105.317 69.751 105.033 69.3176 104.795C68.8842 104.558 68.4147 104.331 67.9091 104.114C67.1765 103.805 66.4903 103.454 65.8505 103.062C65.2211 102.66 64.6742 102.195 64.2099 101.669C63.7456 101.143 63.3896 100.544 63.1419 99.8735C62.9046 99.1925 62.8169 98.4238 62.8788 97.5673C62.9407 96.6386 63.1677 95.7874 63.5598 95.0135C63.9519 94.2396 64.4575 93.5792 65.0766 93.0323C65.7061 92.4751 66.4284 92.0469 67.2435 91.7477C68.0587 91.4381 68.9306 91.2936 69.8593 91.3143C70.8292 91.3349 71.6805 91.531 72.4131 91.9024C73.1561 92.2739 73.77 92.7692 74.255 93.3883C74.7503 94.0074 75.1114 94.7297 75.3384 95.5552C75.5758 96.3704 75.6686 97.232 75.6171 98.14H72.831C72.8723 97.5828 72.8517 97.0411 72.7691 96.5148C72.6969 95.9886 72.5421 95.5242 72.3048 95.1218C72.0675 94.7194 71.7373 94.3944 71.3142 94.1467C70.8912 93.8991 70.3597 93.7701 69.72 93.7598C69.1422 93.7495 68.6159 93.8372 68.1413 94.0229C67.6769 94.1983 67.2693 94.4563 66.9185 94.7968C66.5677 95.127 66.2839 95.5242 66.0672 95.9886C65.8609 96.4529 65.7267 96.9637 65.6648 97.5209C65.6029 98.0575 65.6545 98.5373 65.8196 98.9603C65.995 99.3731 66.2375 99.7394 66.547 100.059C66.8566 100.369 67.2177 100.642 67.6305 100.88C68.0432 101.117 68.4714 101.328 68.9151 101.514C69.6994 101.844 70.4165 102.211 71.0666 102.613C71.727 103.016 72.2842 103.49 72.7382 104.037C73.2025 104.574 73.543 105.193 73.7597 105.894C73.9867 106.596 74.0641 107.406 73.9919 108.324C73.9196 109.284 73.6823 110.151 73.2799 110.925C72.8775 111.688 72.3564 112.338 71.7166 112.875C71.0872 113.401 70.3546 113.804 69.5188 114.082C68.683 114.361 67.7956 114.49 66.8566 114.469C65.8763 114.448 64.9941 114.258 64.2099 113.896C63.436 113.535 62.7756 113.05 62.2287 112.442C61.6922 111.833 61.2846 111.116 61.006 110.29C60.7377 109.465 60.6293 108.577 60.6809 107.628H63.4669C63.4257 108.237 63.4618 108.809 63.5753 109.346C63.6888 109.872 63.8849 110.337 64.1635 110.739C64.4524 111.131 64.829 111.446 65.2933 111.683C65.7577 111.91 66.32 112.029 66.9804 112.039C67.5583 112.049 68.0897 111.972 68.5746 111.807C69.0699 111.642 69.4981 111.399 69.8593 111.079C70.2308 110.76 70.53 110.373 70.757 109.919C70.9943 109.454 71.144 108.933 71.2059 108.355Z" fill="#012639"/>
<path d="M121.617 66.493L118.878 69.279L117.578 76.8477H114.807L118.708 54.3119H121.478L119.605 65.0226L121.834 62.5926L129.047 54.3119H132.576L123.614 64.388L129.031 76.8477H125.905L121.617 66.493Z" fill="#012639"/>
<path d="M112.052 67.5455C111.928 68.3503 111.753 69.15 111.526 69.9445C111.309 70.7391 111.03 71.4975 110.69 72.2198C110.349 72.9421 109.942 73.6128 109.467 74.2319C109.003 74.8407 108.466 75.367 107.857 75.8106C107.249 76.244 106.562 76.5845 105.799 76.8322C105.035 77.0695 104.189 77.1779 103.261 77.1572C102.383 77.1366 101.615 76.987 100.954 76.7084C100.294 76.4298 99.7265 76.0583 99.2518 75.594C98.7875 75.1296 98.4057 74.5879 98.1064 73.9688C97.8175 73.3497 97.6008 72.6893 97.4564 71.9876C97.3119 71.286 97.2345 70.5585 97.2242 69.8052C97.2139 69.052 97.2552 68.3039 97.348 67.561L97.9517 63.6451C98.0755 62.8505 98.2457 62.056 98.4624 61.2615C98.6894 60.467 98.9732 59.7085 99.3137 58.9862C99.6645 58.2639 100.077 57.5932 100.552 56.9741C101.027 56.355 101.568 55.8236 102.177 55.3799C102.786 54.9259 103.472 54.5802 104.236 54.3429C104.999 54.0952 105.84 53.9817 106.759 54.0024C107.646 54.023 108.42 54.1726 109.08 54.4512C109.741 54.7298 110.303 55.1013 110.767 55.5656C111.242 56.03 111.624 56.5769 111.913 57.2063C112.202 57.8254 112.418 58.491 112.563 59.2029C112.707 59.9046 112.779 60.6372 112.779 61.4008C112.79 62.154 112.748 62.9021 112.656 63.6451L112.052 67.5455ZM109.901 63.5832C109.962 63.1085 110.009 62.6132 110.04 62.0973C110.071 61.571 110.066 61.05 110.024 60.534C109.993 60.0181 109.911 59.528 109.777 59.0636C109.653 58.589 109.457 58.1711 109.189 57.8099C108.92 57.4385 108.575 57.1392 108.152 56.9122C107.728 56.6852 107.207 56.5614 106.588 56.5407C105.928 56.5201 105.335 56.6027 104.808 56.7884C104.292 56.9741 103.828 57.2372 103.415 57.5778C103.003 57.9183 102.641 58.3259 102.332 58.8005C102.033 59.2648 101.775 59.7653 101.558 60.3019C101.341 60.8281 101.161 61.375 101.016 61.9425C100.882 62.51 100.774 63.0672 100.691 63.6141L100.103 67.5764C100.041 68.0408 99.9947 68.5361 99.9638 69.0623C99.9328 69.5782 99.938 70.0942 99.9793 70.6101C100.021 71.126 100.108 71.6213 100.242 72.096C100.377 72.5706 100.578 72.9937 100.846 73.3652C101.114 73.7366 101.455 74.041 101.868 74.2783C102.291 74.5054 102.812 74.6292 103.431 74.6498C104.102 74.6704 104.7 74.5931 105.226 74.4176C105.752 74.2319 106.217 73.9688 106.619 73.6283C107.032 73.2878 107.388 72.8853 107.687 72.421C107.986 71.9567 108.239 71.4562 108.446 70.9197C108.662 70.3831 108.838 69.831 108.972 69.2635C109.106 68.6857 109.214 68.1182 109.297 67.561L109.901 63.5832Z" fill="#012639"/>
<path d="M93.4167 67.5455C93.2929 68.3503 93.1175 69.15 92.8905 69.9445C92.6738 70.7391 92.3952 71.4975 92.0547 72.2198C91.7142 72.9421 91.3066 73.6128 90.8319 74.2319C90.3676 74.8407 89.831 75.367 89.2222 75.8106C88.6134 76.244 87.9272 76.5845 87.1637 76.8322C86.4001 77.0695 85.554 77.1779 84.6253 77.1572C83.7482 77.1366 82.9795 76.987 82.3191 76.7084C81.6587 76.4298 81.0912 76.0583 80.6165 75.594C80.1522 75.1296 79.7704 74.5879 79.4712 73.9688C79.1823 73.3497 78.9656 72.6893 78.8211 71.9876C78.6767 71.286 78.5993 70.5585 78.589 69.8052C78.5786 69.052 78.6199 68.3039 78.7128 67.561L79.3164 63.6451C79.4402 62.8505 79.6105 62.056 79.8272 61.2615C80.0542 60.467 80.3379 59.7085 80.6785 58.9862C81.0293 58.2639 81.442 57.5932 81.9167 56.9741C82.3913 56.355 82.9331 55.8236 83.5419 55.3799C84.1507 54.9259 84.8368 54.5802 85.6004 54.3429C86.364 54.0952 87.2049 53.9817 88.1233 54.0024C89.0107 54.023 89.7846 54.1726 90.445 54.4512C91.1054 54.7298 91.6677 55.1013 92.1321 55.5656C92.6067 56.03 92.9885 56.5769 93.2774 57.2063C93.5663 57.8254 93.783 58.491 93.9275 59.2029C94.0719 59.9046 94.1442 60.6372 94.1442 61.4008C94.1545 62.154 94.1132 62.9021 94.0204 63.6451L93.4167 67.5455ZM91.2653 63.5832C91.3272 63.1085 91.3736 62.6132 91.4046 62.0973C91.4356 61.571 91.4304 61.05 91.3891 60.534C91.3582 60.0181 91.2756 59.528 91.1415 59.0636C91.0177 58.589 90.8216 58.1711 90.5533 57.8099C90.285 57.4385 89.9394 57.1392 89.5163 56.9122C89.0932 56.6852 88.5722 56.5614 87.953 56.5407C87.2927 56.5201 86.6993 56.6027 86.1731 56.7884C85.6572 56.9741 85.1928 57.2372 84.7801 57.5778C84.3673 57.9183 84.0062 58.3259 83.6966 58.8005C83.3974 59.2648 83.1394 59.7653 82.9227 60.3019C82.7061 60.8281 82.5255 61.375 82.381 61.9425C82.2469 62.51 82.1385 63.0672 82.056 63.6141L81.4678 67.5764C81.4059 68.0408 81.3595 68.5361 81.3285 69.0623C81.2976 69.5782 81.3027 70.0942 81.344 70.6101C81.3853 71.126 81.473 71.6213 81.6071 72.096C81.7413 72.5706 81.9425 72.9937 82.2108 73.3652C82.479 73.7366 82.8196 74.041 83.2323 74.2783C83.6554 74.5054 84.1764 74.6292 84.7956 74.6498C85.4663 74.6704 86.0647 74.5931 86.591 74.4176C87.1172 74.2319 87.5816 73.9688 87.984 73.6283C88.3967 73.2878 88.7527 72.8853 89.052 72.421C89.3512 71.9567 89.604 71.4562 89.8104 70.9197C90.0271 70.3831 90.2025 69.831 90.3366 69.2635C90.4708 68.6857 90.5791 68.1182 90.6617 67.561L91.2653 63.5832Z" fill="#012639"/>
<path d="M60.6035 76.8477L64.5039 54.3119L70.5558 54.3274C72.3718 54.379 73.7236 54.9156 74.611 55.9371C75.5087 56.9586 75.8853 58.3774 75.7408 60.1935C75.6892 60.7714 75.5603 61.3028 75.3539 61.7877C75.1578 62.2727 74.8947 62.7164 74.5645 63.1188C74.2446 63.5212 73.868 63.8824 73.4346 64.2023C73.0116 64.5221 72.5524 64.8059 72.0571 65.0536C72.5524 65.2702 72.9548 65.5695 73.2644 65.9513C73.5843 66.3331 73.8319 66.7613 74.0073 67.2359C74.1827 67.7003 74.2962 68.1904 74.3478 68.7063C74.3994 69.2222 74.4046 69.7279 74.3633 70.2231C74.2808 71.224 74.0538 72.1372 73.6823 72.9627C73.3211 73.7779 72.8362 74.4744 72.2274 75.0522C71.6186 75.6301 70.8963 76.0789 70.0605 76.3988C69.2247 76.7084 68.3012 76.858 67.2899 76.8477H60.6035ZM65.2004 66.3073L63.7919 74.4176L67.3828 74.4486C68.0019 74.4383 68.5591 74.3248 69.0544 74.1081C69.5497 73.8914 69.9728 73.5973 70.3236 73.2258C70.6847 72.8441 70.9737 72.4004 71.1904 71.8948C71.407 71.3788 71.5515 70.8268 71.6237 70.2386C71.6753 69.764 71.6805 69.2996 71.6392 68.8456C71.6083 68.3813 71.5051 67.9685 71.3297 67.6074C71.1542 67.2359 70.8963 66.9367 70.5558 66.7097C70.2153 66.4827 69.7664 66.3537 69.2092 66.3227L65.2004 66.3073ZM65.6029 63.9237L68.9925 63.9546C69.5394 63.9443 70.0398 63.8411 70.4939 63.6451C70.9479 63.449 71.3451 63.1859 71.6856 62.8557C72.0262 62.5152 72.2996 62.1179 72.506 61.6639C72.7227 61.1996 72.862 60.7043 72.9239 60.178C72.9858 59.6931 72.9909 59.2494 72.9393 58.8469C72.8878 58.4342 72.7639 58.0782 72.5679 57.779C72.3821 57.4797 72.119 57.2424 71.7785 57.067C71.438 56.8916 71.0098 56.7935 70.4939 56.7729L66.8566 56.7574L65.6029 63.9237Z" fill="#012639"/>
</g>
</g>
<defs>
<filter id="filter0_dii_80_816" x="0" y="0" width="252" height="250" filterUnits="userSpaceOnUse" color-interpolation-filters="sRGB">
<feFlood flood-opacity="0" result="BackgroundImageFix"/>
<feColorMatrix in="SourceAlpha" type="matrix" values="0 0 0 0 0 0 0 0 0 0 0 0 0 0 0 0 0 0 127 0" result="hardAlpha"/>
<feOffset dy="4"/>
<feGaussianBlur stdDeviation="20"/>
<feComposite in2="hardAlpha" operator="out"/>
<feColorMatrix type="matrix" values="0 0 0 0 0 0 0 0 0 0 0 0 0 0 0 0 0 0 0.25 0"/>
<feBlend mode="normal" in2="BackgroundImageFix" result="effect1_dropShadow_80_816"/>
<feBlend mode="normal" in="SourceGraphic" in2="BackgroundImageFix" result="shape"/>
<feColorMatrix in="SourceAlpha" type="matrix" values="0 0 0 0 0 0 0 0 0 0 0 0 0 0 0 0 0 0 127 0" result="hardAlpha"/>
<feOffset dx="40" dy="30"/>
<feGaussianBlur stdDeviation="40"/>
<feComposite in2="hardAlpha" operator="arithmetic" k2="-1" k3="1"/>
<feColorMatrix type="matrix" values="0 0 0 0 1 0 0 0 0 1 0 0 0 0 1 0 0 0 0.25 0"/>
<feBlend mode="normal" in2="shape" result="effect2_innerShadow_80_816"/>
<feColorMatrix in="SourceAlpha" type="matrix" values="0 0 0 0 0 0 0 0 0 0 0 0 0 0 0 0 0 0 127 0" result="hardAlpha"/>
<feOffset dx="4" dy="4"/>
<feGaussianBlur stdDeviation="1"/>
<feComposite in2="hardAlpha" operator="arithmetic" k2="-1" k3="1"/>
<feColorMatrix type="matrix" values="0 0 0 0 1 0 0 0 0 1 0 0 0 0 1 0 0 0 0.25 0"/>
<feBlend mode="normal" in2="effect2_innerShadow_80_816" result="effect3_innerShadow_80_816"/>
<feBlend mode="normal" in="effect3_innerShadow_80_816" in2="effect1_dropShadow_80_816" result="effect3_innerShadow_80_816"/>
</filter>
<filter id="filter1_dd_80_816" x="40" y="34" width="112.576" height="175.11" filterUnits="userSpaceOnUse" color-interpolation-filters="sRGB">
<feFlood flood-opacity="0" result="BackgroundImageFix"/>
<feColorMatrix in="SourceAlpha" type="matrix" values="0 0 0 0 0 0 0 0 0 0 0 0 0 0 0 0 0 0 127 0" result="hardAlpha"/>
<feOffset/>
<feGaussianBlur stdDeviation="10"/>
<feComposite in2="hardAlpha" operator="out"/>
<feColorMatrix type="matrix" values="0 0 0 0 0 0 0 0 0 0 0 0 0 0 0 0 0 0 0.25 0"/>
<feBlend mode="normal" in2="BackgroundImageFix" result="effect1_dropShadow_80_816"/>
<feColorMatrix in="SourceAlpha" type="matrix" values="0 0 0 0 0 0 0 0 0 0 0 0 0 0 0 0 0 0 127 0" result="hardAlpha"/>
<feOffset dx="-2" dy="-2"/>
<feGaussianBlur stdDeviation="3.5"/>
<feComposite in2="hardAlpha" operator="out"/>
<feColorMatrix type="matrix" values="0 0 0 0 1 0 0 0 0 1 0 0 0 0 1 0 0 0 0.25 0"/>
<feBlend mode="normal" in2="effect1_dropShadow_80_816" result="effect2_dropShadow_80_816"/>
<feBlend mode="normal" in="SourceGraphic" in2="effect2_dropShadow_80_816" result="shape"/>
</filter>
</defs>
</svg>
