<svg width="41" height="75" viewBox="0 0 41 75" fill="none" xmlns="http://www.w3.org/2000/svg">
<path d="M34.7968 69.4057H30.982L30.4064 72.7222H34.9256L34.5562 74.8186H27.5797L29.7448 62.3089H36.7127L36.3433 64.4139H31.8498L31.3343 67.3695H35.1576L34.7968 69.4057Z" fill="#012639"/>
<path d="M27.8116 62.3089L26.351 70.9007C26.2651 71.5365 26.1019 72.1093 25.8613 72.6191C25.6207 73.1289 25.3086 73.5642 24.9248 73.925C24.541 74.2802 24.0857 74.5522 23.5587 74.7412C23.0375 74.9245 22.4475 75.0105 21.7888 74.999C21.1702 74.9875 20.6289 74.8816 20.165 74.6811C19.7067 74.4806 19.3287 74.2028 19.0308 73.8477C18.7387 73.4868 18.5325 73.0573 18.4122 72.5589C18.2977 72.0606 18.2748 71.5079 18.3435 70.9007L19.8041 62.3089H22.2785L20.8351 70.9093C20.8065 71.1671 20.7922 71.4162 20.7922 71.6568C20.7979 71.8916 20.838 72.1007 20.9124 72.284C20.9926 72.4616 21.1158 72.6048 21.2819 72.7136C21.4537 72.8224 21.6914 72.8826 21.995 72.894C22.3158 72.9055 22.5878 72.8654 22.8112 72.7737C23.0346 72.6764 23.2208 72.5389 23.3697 72.3613C23.5186 72.178 23.6332 71.9632 23.7134 71.7169C23.7936 71.4706 23.8537 71.2014 23.8938 70.9093L25.3458 62.3089H27.8116Z" fill="#012639"/>
<path d="M12.5011 72.7222H16.8055L16.4361 74.8186H9.67436L11.8395 62.3089H14.3053L12.5011 72.7222Z" fill="#012639"/>
<path d="M0 74.8186L2.16513 62.3089L5.79087 62.3175C6.31783 62.329 6.79897 62.4063 7.23429 62.5495C7.67533 62.687 8.04765 62.8932 8.35122 63.1681C8.66053 63.443 8.88964 63.7896 9.03857 64.2077C9.19322 64.6201 9.2505 65.107 9.2104 65.6683C9.15885 66.327 8.96124 66.8855 8.61757 67.3437C8.2739 67.7962 7.80708 68.1599 7.21711 68.4349C7.48059 68.5437 7.69538 68.6955 7.86149 68.8902C8.0276 69.0793 8.15361 69.294 8.23953 69.5346C8.33118 69.7752 8.38845 70.0272 8.41137 70.2907C8.44 70.5542 8.44573 70.8148 8.42855 71.0725C8.38273 71.6854 8.24526 72.2267 8.01614 72.6964C7.79276 73.1661 7.49491 73.5613 7.1226 73.8821C6.75028 74.1971 6.3121 74.4348 5.80805 74.5952C5.304 74.7498 4.75126 74.8243 4.14984 74.8186H0ZM3.41094 69.38L2.8267 72.7222L4.27012 72.7394C4.52215 72.7336 4.7484 72.6878 4.94887 72.6019C5.14935 72.516 5.32118 72.3985 5.46438 72.2496C5.60758 72.095 5.72213 71.9145 5.80805 71.7083C5.8997 71.5021 5.9627 71.2788 5.99707 71.0382C6.01998 70.8606 6.03144 70.6773 6.03144 70.4883C6.03717 70.2993 6.01139 70.1275 5.95411 69.9728C5.90256 69.8124 5.81378 69.6807 5.68777 69.5776C5.56748 69.4687 5.39565 69.4057 5.17226 69.3886L3.41094 69.38ZM3.72025 67.5413L4.88873 67.5585C5.40424 67.5471 5.81664 67.401 6.12595 67.1203C6.43525 66.8397 6.62427 66.4444 6.69301 65.9347C6.72165 65.7227 6.72737 65.528 6.71019 65.3504C6.69873 65.1671 6.65578 65.0096 6.58131 64.8779C6.50685 64.7461 6.39516 64.6402 6.24623 64.56C6.10304 64.4798 5.91688 64.434 5.68777 64.4225L4.27012 64.4139L3.72025 67.5413Z" fill="#012639"/>
<path d="M34.7968 48.6938H30.982L30.4064 52.0102H34.9256L34.5562 54.1066H27.5797L29.7448 41.597H36.7127L36.3433 43.7019H31.8498L31.3343 46.6575H35.1576L34.7968 48.6938Z" fill="#012639"/>
<path d="M27.8116 41.597L26.351 50.1888C26.2651 50.8245 26.1019 51.3973 25.8613 51.9071C25.6207 52.4169 25.3086 52.8522 24.9248 53.2131C24.541 53.5682 24.0857 53.8403 23.5587 54.0293C23.0375 54.2126 22.4475 54.2985 21.7888 54.287C21.1702 54.2756 20.6289 54.1696 20.165 53.9691C19.7067 53.7687 19.3287 53.4909 19.0308 53.1357C18.7387 52.7749 18.5325 52.3453 18.4122 51.847C18.2977 51.3486 18.2748 50.7959 18.3435 50.1888L19.8041 41.597H22.2785L20.8351 50.1973C20.8065 50.4551 20.7922 50.7043 20.7922 50.9448C20.7979 51.1797 20.838 51.3887 20.9124 51.572C20.9926 51.7496 21.1158 51.8928 21.2819 52.0016C21.4537 52.1104 21.6914 52.1706 21.995 52.182C22.3158 52.1935 22.5878 52.1534 22.8112 52.0618C23.0346 51.9644 23.2208 51.8269 23.3697 51.6494C23.5186 51.4661 23.6332 51.2513 23.7134 51.005C23.7936 50.7587 23.8537 50.4895 23.8938 50.1973L25.3458 41.597H27.8116Z" fill="#012639"/>
<path d="M12.5011 52.0102H16.8055L16.4361 54.1066H9.67436L11.8395 41.597H14.3053L12.5011 52.0102Z" fill="#012639"/>
<path d="M0 54.1066L2.16513 41.597L5.79087 41.6056C6.31783 41.617 6.79897 41.6943 7.23429 41.8375C7.67533 41.975 8.04765 42.1812 8.35122 42.4561C8.66053 42.7311 8.88964 43.0776 9.03857 43.4957C9.19322 43.9082 9.2505 44.395 9.2104 44.9563C9.15885 45.6151 8.96124 46.1735 8.61757 46.6317C8.2739 47.0843 7.80708 47.448 7.21711 47.7229C7.48059 47.8317 7.69538 47.9835 7.86149 48.1783C8.0276 48.3673 8.15361 48.5821 8.23953 48.8227C8.33118 49.0632 8.38845 49.3153 8.41137 49.5787C8.44 49.8422 8.44573 50.1028 8.42855 50.3606C8.38273 50.9735 8.24526 51.5148 8.01614 51.9844C7.79276 52.4541 7.49491 52.8493 7.1226 53.1701C6.75028 53.4851 6.3121 53.7228 5.80805 53.8832C5.304 54.0379 4.75126 54.1123 4.14984 54.1066H0ZM3.41094 48.668L2.8267 52.0102L4.27012 52.0274C4.52215 52.0217 4.7484 51.9758 4.94887 51.8899C5.14935 51.804 5.32118 51.6866 5.46438 51.5377C5.60758 51.383 5.72213 51.2026 5.80805 50.9964C5.8997 50.7902 5.9627 50.5668 5.99707 50.3262C6.01998 50.1487 6.03144 49.9654 6.03144 49.7763C6.03717 49.5873 6.01139 49.4155 5.95411 49.2608C5.90256 49.1005 5.81378 48.9687 5.68777 48.8656C5.56748 48.7568 5.39565 48.6938 5.17226 48.6766L3.41094 48.668ZM3.72025 46.8294L4.88873 46.8465C5.40424 46.8351 5.81664 46.689 6.12595 46.4084C6.43525 46.1277 6.62427 45.7325 6.69301 45.2227C6.72165 45.0108 6.72737 44.816 6.71019 44.6385C6.69873 44.4552 6.65578 44.2976 6.58131 44.1659C6.50685 44.0342 6.39516 43.9282 6.24623 43.848C6.10304 43.7678 5.91688 43.722 5.68777 43.7105L4.27012 43.7019L3.72025 46.8294Z" fill="#012639"/>
<path d="M27.3047 32.7761C27.2073 33.4004 26.9897 33.979 26.6517 34.5116C26.3138 35.0501 25.9014 35.5112 25.4145 35.8949L24.521 35.2505C24.8188 34.884 25.0766 34.5002 25.2942 34.0992C25.5119 33.704 25.6665 33.2744 25.7582 32.8105L25.9816 31.5131H27.5023L27.3047 32.7761Z" fill="#012639"/>
<path d="M22.8713 27.1484L26.4455 20.885H28.2584L23.3868 28.8238L22.5964 33.3946H21.0585L21.8919 28.6348L19.8213 20.885H21.4881L22.8713 27.1484Z" fill="#012639"/>
<path d="M13.0509 27.6467L11.5302 29.1933L10.8085 33.3946H9.27055L11.4357 20.885H12.9736L11.934 26.8305L13.1712 25.4816L17.175 20.885H19.1339L14.1593 26.4783L17.1664 33.3946H15.4309L13.0509 27.6467Z" fill="#012639"/>
<path d="M6.22047 30.1727C6.26056 29.8348 6.24051 29.5455 6.16032 29.305C6.08013 29.0587 5.95412 28.8467 5.78228 28.6692C5.61618 28.4859 5.41284 28.3284 5.17227 28.1966C4.9317 28.0649 4.67108 27.9389 4.39041 27.8186C3.98374 27.6467 3.60283 27.452 3.24771 27.2343C2.89831 27.0109 2.59473 26.7532 2.33698 26.4611C2.07922 26.1689 1.88161 25.8367 1.74414 25.4644C1.6124 25.0864 1.56371 24.6597 1.59808 24.1842C1.63245 23.6687 1.75846 23.1962 1.97612 22.7666C2.19378 22.337 2.47444 21.9704 2.81812 21.6668C3.16752 21.3575 3.56847 21.1198 4.02097 20.9537C4.47347 20.7819 4.95747 20.7017 5.47298 20.7132C6.0114 20.7246 6.48395 20.8334 6.89063 21.0396C7.30303 21.2459 7.64384 21.5208 7.91305 21.8645C8.18799 22.2081 8.38846 22.6091 8.51447 23.0673C8.64621 23.5198 8.69777 23.9981 8.66913 24.5021H7.1226C7.14552 24.1928 7.13406 23.8921 7.08824 23.6C7.04814 23.3079 6.96222 23.0501 6.83048 22.8267C6.69874 22.6034 6.51545 22.4229 6.28061 22.2855C6.04577 22.148 5.75078 22.0764 5.39565 22.0707C5.07489 22.0649 4.78277 22.1136 4.51929 22.2167C4.26154 22.3141 4.03529 22.4573 3.84054 22.6463C3.64579 22.8296 3.48828 23.0501 3.36799 23.3079C3.25343 23.5656 3.17897 23.8492 3.1446 24.1585C3.11024 24.4563 3.13888 24.7227 3.23052 24.9575C3.3279 25.1866 3.4625 25.39 3.63434 25.5675C3.80617 25.7394 4.00665 25.8911 4.23576 26.0229C4.46488 26.1546 4.70258 26.272 4.94888 26.3751C5.3842 26.5584 5.78228 26.7618 6.14314 26.9852C6.50972 27.2086 6.81903 27.472 7.07105 27.7756C7.32881 28.0735 7.51783 28.4171 7.63811 28.8066C7.76412 29.1961 7.80708 29.6458 7.76699 30.1555C7.72689 30.6882 7.59515 31.1694 7.37177 31.599C7.14838 32.0228 6.85912 32.3837 6.50399 32.6815C6.1546 32.9736 5.74792 33.197 5.28396 33.3517C4.82 33.5063 4.32741 33.5779 3.80617 33.5665C3.26202 33.555 2.77229 33.4491 2.33698 33.2486C1.90739 33.0481 1.5408 32.7789 1.23723 32.441C0.939377 32.103 0.713127 31.7049 0.558474 31.2467C0.40955 30.7885 0.349407 30.2959 0.378047 29.7689H1.92457C1.90166 30.1069 1.92171 30.4247 1.98471 30.7226C2.04772 31.0147 2.15655 31.2725 2.3112 31.4959C2.47158 31.7135 2.68065 31.8882 2.9384 32.02C3.19615 32.146 3.50832 32.2118 3.87491 32.2176C4.19567 32.2233 4.49065 32.1803 4.75986 32.0887C5.0348 31.997 5.2725 31.8624 5.47298 31.6849C5.67918 31.5073 5.84529 31.2925 5.9713 31.0405C6.10304 30.7827 6.1861 30.4935 6.22047 30.1727Z" fill="#012639"/>
<path d="M34.2039 6.9349L32.6832 8.48142L31.9615 12.6828H30.4235L32.5887 0.173156H34.1266L33.087 6.11868L34.3242 4.76976L38.328 0.173156H40.2869L35.3123 5.76641L38.3194 12.6828H36.5838L34.2039 6.9349Z" fill="#012639"/>
<path d="M28.8942 7.51914C28.8255 7.96591 28.7281 8.40982 28.6021 8.85087C28.4818 9.29191 28.3271 9.71291 28.1381 10.1139C27.9491 10.5148 27.7229 10.8871 27.4594 11.2308C27.2016 11.5687 26.9038 11.8609 26.5658 12.1072C26.2279 12.3477 25.847 12.5367 25.4231 12.6742C24.9993 12.806 24.5296 12.8661 24.0141 12.8546C23.5272 12.8432 23.1005 12.7601 22.7339 12.6055C22.3673 12.4508 22.0523 12.2446 21.7888 11.9869C21.531 11.7291 21.3191 11.4284 21.153 11.0847C20.9926 10.7411 20.8723 10.3745 20.7921 9.98498C20.712 9.59549 20.669 9.19168 20.6633 8.77354C20.6575 8.35541 20.6805 7.94014 20.732 7.52773L21.0671 5.35401C21.1358 4.91296 21.2303 4.47192 21.3506 4.03087C21.4766 3.58983 21.6341 3.16883 21.8232 2.76788C22.0179 2.36693 22.247 1.99462 22.5105 1.65095C22.774 1.30727 23.0747 1.01229 23.4126 0.765991C23.7506 0.513965 24.1315 0.322082 24.5554 0.190341C24.9792 0.0528726 25.446 -0.0101339 25.9558 0.00132181C26.4484 0.0127775 26.878 0.0958315 27.2446 0.250484C27.6112 0.405136 27.9233 0.611339 28.1811 0.869093C28.4446 1.12685 28.6565 1.43042 28.8169 1.77982C28.9773 2.12349 29.0975 2.49294 29.1777 2.88816C29.2579 3.27766 29.298 3.68434 29.298 4.1082C29.3037 4.52633 29.2808 4.9416 29.2293 5.35401L28.8942 7.51914ZM27.6999 5.31964C27.7343 5.05616 27.7601 4.78122 27.7773 4.49483C27.7945 4.20271 27.7916 3.91345 27.7687 3.62706C27.7515 3.34066 27.7057 3.06859 27.6312 2.81084C27.5625 2.54736 27.4536 2.31538 27.3047 2.1149C27.1558 1.9087 26.9639 1.74259 26.7291 1.61658C26.4942 1.49057 26.205 1.42183 25.8613 1.41038C25.4947 1.39892 25.1654 1.44474 24.8732 1.54784C24.5869 1.65095 24.3291 1.79701 24.1 1.98603C23.8709 2.17505 23.6704 2.4013 23.4986 2.66478C23.3325 2.92253 23.1893 3.20033 23.069 3.49818C22.9487 3.7903 22.8484 4.09388 22.7683 4.40891C22.6938 4.72394 22.6337 5.03325 22.5878 5.33682L22.2613 7.53632C22.227 7.79408 22.2012 8.06901 22.184 8.36113C22.1668 8.64753 22.1697 8.93392 22.1926 9.22031C22.2155 9.50671 22.2642 9.78164 22.3387 10.0451C22.4131 10.3086 22.5248 10.5434 22.6737 10.7497C22.8227 10.9559 23.0117 11.1248 23.2408 11.2566C23.4757 11.3826 23.7649 11.4513 24.1086 11.4628C24.4809 11.4742 24.8131 11.4313 25.1052 11.3339C25.3973 11.2308 25.6551 11.0847 25.8785 10.8957C26.1076 10.7067 26.3052 10.4833 26.4713 10.2256C26.6374 9.9678 26.7778 9.69 26.8923 9.39215C27.0126 9.0943 27.11 8.78786 27.1844 8.47283C27.2589 8.15207 27.319 7.83704 27.3649 7.52773L27.6999 5.31964Z" fill="#012639"/>
<path d="M18.5497 7.51914C18.4809 7.96591 18.3835 8.40982 18.2575 8.85087C18.1372 9.29191 17.9826 9.71291 17.7936 10.1139C17.6046 10.5148 17.3783 10.8871 17.1148 11.2308C16.8571 11.5687 16.5592 11.8609 16.2213 12.1072C15.8833 12.3477 15.5024 12.5367 15.0786 12.6742C14.6547 12.806 14.185 12.8661 13.6695 12.8546C13.1826 12.8432 12.7559 12.7601 12.3893 12.6055C12.0228 12.4508 11.7077 12.2446 11.4442 11.9869C11.1865 11.7291 10.9746 11.4284 10.8084 11.0847C10.6481 10.7411 10.5278 10.3745 10.4476 9.98498C10.3674 9.59549 10.3244 9.19168 10.3187 8.77354C10.313 8.35541 10.3359 7.94014 10.3874 7.52773L10.7225 5.35401C10.7913 4.91296 10.8858 4.47192 11.0061 4.03087C11.1321 3.58983 11.2896 3.16883 11.4786 2.76788C11.6734 2.36693 11.9025 1.99462 12.1659 1.65095C12.4294 1.30727 12.7301 1.01229 13.0681 0.765991C13.406 0.513965 13.7869 0.322082 14.2108 0.190341C14.6347 0.0528726 15.1015 -0.0101339 15.6113 0.00132181C16.1039 0.0127775 16.5334 0.0958315 16.9 0.250484C17.2666 0.405136 17.5788 0.611339 17.8365 0.869093C18.1 1.12685 18.3119 1.43042 18.4723 1.77982C18.6327 2.12349 18.753 2.49294 18.8332 2.88816C18.9134 3.27766 18.9535 3.68434 18.9535 4.1082C18.9592 4.52633 18.9363 4.9416 18.8847 5.35401L18.5497 7.51914ZM17.3554 5.31964C17.3898 5.05616 17.4155 4.78122 17.4327 4.49483C17.4499 4.20271 17.447 3.91345 17.4241 3.62706C17.4069 3.34066 17.3611 3.06859 17.2867 2.81084C17.2179 2.54736 17.1091 2.31538 16.9602 2.1149C16.8112 1.9087 16.6194 1.74259 16.3845 1.61658C16.1497 1.49057 15.8604 1.42183 15.5167 1.41038C15.1502 1.39892 14.8208 1.44474 14.5287 1.54784C14.2423 1.65095 13.9845 1.79701 13.7554 1.98603C13.5263 2.17505 13.3258 2.4013 13.154 2.66478C12.9879 2.92253 12.8447 3.20033 12.7244 3.49818C12.6041 3.7903 12.5039 4.09388 12.4237 4.40891C12.3492 4.72394 12.2891 5.03325 12.2433 5.33682L11.9168 7.53632C11.8824 7.79408 11.8566 8.06901 11.8395 8.36113C11.8223 8.64753 11.8251 8.93392 11.8481 9.22031C11.871 9.50671 11.9197 9.78164 11.9941 10.0451C12.0686 10.3086 12.1803 10.5434 12.3292 10.7497C12.4781 10.9559 12.6671 11.1248 12.8963 11.2566C13.1311 11.3826 13.4204 11.4513 13.764 11.4628C14.1363 11.4742 14.4685 11.4313 14.7607 11.3339C15.0528 11.2308 15.3105 11.0847 15.5339 10.8957C15.763 10.7067 15.9607 10.4833 16.1268 10.2256C16.2929 9.9678 16.4332 9.69 16.5478 9.39215C16.668 9.0943 16.7654 8.78786 16.8399 8.47283C16.9143 8.15207 16.9745 7.83704 17.0203 7.52773L17.3554 5.31964Z" fill="#012639"/>
<path d="M0.335069 12.6828L2.5002 0.173156L5.85959 0.181747C6.86769 0.210387 7.61804 0.508236 8.11064 1.07529C8.60896 1.64235 8.81803 2.42993 8.73784 3.43804C8.7092 3.7588 8.6376 4.05378 8.52305 4.32299C8.41422 4.5922 8.26816 4.8385 8.08487 5.06189C7.9073 5.28527 7.69823 5.48575 7.45766 5.66331C7.22282 5.84087 6.96793 5.99839 6.693 6.13586C6.96793 6.25614 7.19132 6.42225 7.36315 6.63418C7.54072 6.84611 7.67819 7.08382 7.77556 7.3473C7.87293 7.60506 7.93594 7.87713 7.96458 8.16352C7.99322 8.44992 7.99608 8.73058 7.97317 9.00552C7.92735 9.56112 7.80134 10.068 7.59513 10.5263C7.39466 10.9788 7.12545 11.3654 6.7875 11.6862C6.44956 12.0069 6.04861 12.2561 5.58465 12.4336C5.1207 12.6055 4.60805 12.6885 4.04672 12.6828H0.335069ZM2.88683 6.83179L2.10498 11.3339L4.09827 11.3511C4.44195 11.3453 4.75125 11.2823 5.02619 11.1621C5.30112 11.0418 5.53597 10.8785 5.73071 10.6723C5.93119 10.4604 6.09157 10.2141 6.21185 9.93343C6.33214 9.64704 6.41233 9.3406 6.45242 9.01411C6.48106 8.75063 6.48393 8.49287 6.46102 8.24085C6.44383 7.98309 6.38655 7.75398 6.28918 7.5535C6.19181 7.3473 6.04861 7.18119 5.85959 7.05518C5.67057 6.92917 5.42141 6.85757 5.11211 6.84039L2.88683 6.83179ZM3.11022 5.50866L4.99182 5.52584C5.2954 5.52011 5.5732 5.46284 5.82522 5.35401C6.07725 5.24518 6.29777 5.09912 6.48679 4.91582C6.67581 4.72681 6.8276 4.50628 6.94216 4.25426C7.06244 3.9965 7.13977 3.72157 7.17414 3.42944C7.2085 3.16024 7.21137 2.91394 7.18273 2.69055C7.15409 2.46144 7.08535 2.26383 6.97652 2.09772C6.87342 1.93161 6.72736 1.79987 6.53834 1.70249C6.34932 1.60512 6.11162 1.55071 5.82522 1.53925L3.80615 1.53066L3.11022 5.50866Z" fill="#012639"/>
</svg>
