<svg xmlns="http://www.w3.org/2000/svg" width="512" height="512" viewBox="0 0 512 512" role="img" aria-label="Book Sky, Blue Blue icon">
  <defs>
    <linearGradient id="bg" x1="0" x2="1" y1="0" y2="1">
      <stop offset="0%" stop-color="#5EC7FC" />
      <stop offset="100%" stop-color="#047DB9" />
    </linearGradient>
  </defs>
  <rect x="0" y="0" width="512" height="512" rx="112" fill="url(#bg)" />
  <rect x="104" y="112" width="304" height="288" rx="28" fill="#EFFAFF" opacity="0.95" />
  <path d="M152 184c0-13.255 10.745-24 24-24h160c13.255 0 24 10.745 24 24v144c0 13.255-10.745 24-24 24H176c-13.255 0-24-10.745-24-24V184z" fill="#16AEFA" />
  <path d="M176 192h68c22.091 0 40 17.909 40 40v96h-68c-22.091 0-40-17.909-40-40V192z" fill="#DBF2FE" />
  <path d="M336 192h-68c-22.091 0-40 17.909-40 40v96h68c22.091 0 40-17.909 40-40V192z" fill="#BFE9FE" />
  <circle cx="256" cy="376" r="18" fill="#012639" />
</svg>
